<svg width="1905" height="1538" viewBox="0 0 1905 1538" fill="none" xmlns="http://www.w3.org/2000/svg">
<path d="M1820.82 553.21C1820.82 769.739 1645.3 945.263 1428.77 945.263C1212.24 945.263 1036.71 769.739 1036.71 553.21C1036.71 336.682 1212.24 161.158 1428.77 161.158C1645.3 161.158 1820.82 336.682 1820.82 553.21Z" fill="#D5364B"/>
<path d="M45.5122 1538H1180L570.521 521L6.46527 1469.37C-11.5625 1499.67 10.244 1538 45.5122 1538Z" fill="#D5364B"/>
<path d="M1171.89 1529.15L1861.39 1529.3C1894.52 1529.3 1914.99 1493.25 1898.02 1464.77L1037.51 20.8116C1020.98 -6.93721 980.706 -6.93721 964.173 20.8116L618.879 601.425L1171.89 1529.15Z" fill="#C62545"/>
</svg>
