<svg width="249" height="211" viewBox="0 0 249 211" fill="none" xmlns="http://www.w3.org/2000/svg">
<path d="M237.06 76.54C237.06 106.27 212.96 130.37 183.23 130.37C153.5 130.37 129.4 106.27 129.4 76.54C129.4 46.81 153.5 22.71 183.23 22.71C212.96 22.71 237.06 46.81 237.06 76.54Z" fill="#FA7598"/>
<path d="M6.43 210.54H150.54L73.12 81.32L1.47 201.82C-0.819997 205.67 1.95 210.54 6.43 210.54Z" fill="#FA7598"/>
<path d="M147.96 210.54L242.63 210.56C247.18 210.56 249.99 205.61 247.66 201.7L129.51 3.44002C127.24 -0.36998 121.71 -0.36998 119.44 3.44002L72.03 83.16L147.96 210.54Z" fill="#7ADBD4"/>
</svg>
