<svg width="487" height="210" viewBox="0 0 487 210" fill="none" xmlns="http://www.w3.org/2000/svg">
<path fill-rule="evenodd" clip-rule="evenodd" d="M132.635 1.77882C112.76 7.30582 100.13 19.5428 95.3535 37.8968C93.0535 46.7328 93.7555 61.1138 96.8865 69.3158C100.734 79.3938 110.42 87.8148 118.233 87.8748C120.548 87.8928 120.959 88.2288 120.396 89.6468C117.045 98.0808 112.548 113.508 110.558 123.397C108.862 131.83 107.733 135.389 106.761 135.369C106 135.353 101.87 134.961 97.5835 134.497C74.5765 132.008 56.6605 143.955 51.9945 164.897C51.4435 167.372 50.7325 170.635 50.4155 172.147L49.8385 174.897H26.4285C6.4805 174.897 2.7865 175.129 1.4475 176.468C-0.4825 178.399 -0.4825 178.395 1.4475 180.326C2.7865 181.665 6.4805 181.897 26.4285 181.897H49.8385L50.4295 184.647C51.3635 188.985 53.9985 194.697 55.8305 196.356C56.7535 197.191 61.3035 198.812 65.9425 199.959C70.7785 201.155 76.5025 203.4 79.3615 205.221C84.1145 208.249 84.8365 208.401 94.8615 208.49C100.645 208.541 107.678 208.934 110.489 209.363C116.837 210.331 121.324 208.965 127.647 204.139C130.222 202.173 134.221 199.996 136.533 199.3C138.845 198.604 141.92 197.26 143.365 196.313C146.454 194.289 149.876 188.047 149.876 184.437C149.876 182.186 150.303 181.886 153.626 181.797C155.689 181.741 230.974 181.782 320.928 181.887C472.809 182.065 484.581 181.959 485.871 180.404C486.887 179.18 486.979 178.281 486.212 177.063C485.328 175.659 482.934 175.353 471.02 175.12L456.876 174.842V158.548C456.876 139.161 455.77 134.737 449.297 128.265C446.204 125.172 443.433 123.534 439.232 122.312C436.044 121.385 431.271 119.138 428.626 117.319C423.059 113.489 417.25 112.333 410.876 113.784C407.407 114.575 405.019 114.459 400.448 113.279C393.122 111.389 387.203 112.562 381.616 117.012C378.98 119.112 377.727 119.617 377.424 118.702C377.186 117.984 376.016 113.797 374.822 109.397C373.628 104.997 371.576 98.5308 370.263 95.0278C368.95 91.5248 367.876 88.5388 367.876 88.3908C367.876 88.2438 369.868 87.8248 372.303 87.4598C377.079 86.7438 383.532 82.9208 383.126 81.0488C382.988 80.4148 383.392 80.0088 384.021 80.1468C385.659 80.5048 390.431 73.2628 392.422 67.3968C394.961 59.9178 395.43 47.6278 393.473 39.8658C389.45 23.9068 380.954 13.0628 367.001 6.07981C357.111 1.12981 349.782 -0.470186 339.676 0.114814C325.842 0.915814 315.487 8.58981 311.299 21.1468C310.428 23.7598 309.485 25.8968 309.202 25.8968C308.919 25.8968 304.117 24.3448 298.531 22.4478C279.192 15.8788 270.051 14.5038 245.376 14.4518C220.379 14.3998 209.115 16.0418 190.026 22.5178C184.333 24.4498 179.569 25.8878 179.439 25.7138C179.308 25.5388 177.836 22.4318 176.167 18.8078C172.593 11.0498 167.336 5.43981 160.965 2.58681C154.452 -0.330186 141.542 -0.699185 132.635 1.77882ZM278.409 23.2828C301.035 27.6328 319.866 37.1218 335.319 51.9578C347.539 63.6898 356.436 77.1388 363.323 94.2948C366.664 102.618 372.441 121.87 371.706 122.233C364.398 125.854 363.157 126.851 360.922 130.897C358.868 134.617 358.367 137.104 358.036 145.251C357.69 153.752 358.705 164.747 360.564 172.647L361.094 174.897H255.453C171.82 174.897 149.73 174.637 149.415 173.647C149.196 172.96 147.995 169.022 146.746 164.897C143.631 154.613 137.145 148.018 123.725 141.489L114.175 136.843L115.436 129.62C124.055 80.2478 149.014 45.4928 186.876 30.1428C195.503 26.6448 208.266 23.3368 218.376 21.9768C228.892 20.5628 268.776 21.4298 278.409 23.2828ZM179.376 86.2958C165.212 90.7748 152.204 103.318 148.385 116.179C144.871 128.011 147.614 140.635 155.222 147.648C161.562 153.493 167.058 155.255 177.102 154.663C192.982 153.728 204.565 146.795 210.876 134.447C214.193 127.957 214.376 127.071 214.376 117.498C214.376 108.707 214.039 106.678 211.775 101.851C205.016 87.4408 193.395 81.8618 179.376 86.2958ZM302.74 85.6018C301.289 85.8258 297.691 87.4478 294.745 89.2088C285.124 94.9578 279.268 107.983 280.087 121.812C281.04 137.892 290.124 148.76 307.001 154.013C321.889 158.647 335.89 154.647 342.949 143.743C349.039 134.335 349.151 120.897 343.236 109.207C337.947 98.7518 324.336 88.6248 312.077 86.0218C309.162 85.4028 306.462 84.9638 306.077 85.0468C305.691 85.1288 304.19 85.3788 302.74 85.6018ZM206.048 109.552C208.494 111.766 208.353 114.898 205.626 118.922C200.856 125.963 193.876 124.641 193.876 116.697C193.876 109.675 201.342 105.293 206.048 109.552ZM298.62 111.525C301.107 114.261 302.386 118.125 301.538 120.336C301.233 121.131 299.834 122.533 298.43 123.454C296.065 125.003 295.693 125.006 293.391 123.498C290.665 121.712 288.45 118.622 287.418 115.164C286.929 113.525 287.438 112.244 289.331 110.352C292.347 107.335 295.129 107.687 298.62 111.525ZM241.626 124.977C239.298 126.333 239.4 129.572 241.81 130.862C242.874 131.431 245.379 131.897 247.376 131.897C251.997 131.897 254.876 130.361 254.876 127.897C254.876 126.836 254.007 125.502 252.943 124.932C250.487 123.618 243.915 123.644 241.626 124.977ZM398.24 129.403C401.375 132.538 401.003 137.778 397.477 140.132C393.895 142.524 388.876 139.279 388.876 134.571C388.876 128.977 394.636 125.799 398.24 129.403ZM421.319 130.12C423.443 133.151 423.274 136.499 420.876 138.897C418.222 141.551 414.377 141.449 412.434 138.674C409.213 134.076 411.759 127.897 416.876 127.897C418.725 127.897 420.322 128.696 421.319 130.12ZM379.422 142.352C382.081 145.01 382.448 146.959 380.853 149.94C378.622 154.109 373.25 154.402 370.642 150.497C369.24 148.397 369.887 143.886 371.876 141.897C374.515 139.258 376.445 139.374 379.422 142.352ZM439.876 141.897C442.754 144.775 442.465 149.289 439.241 151.824C435.892 154.459 435.315 154.427 432.331 151.442C429.332 148.444 429.227 145.992 431.949 142.532C434.422 139.387 437.148 139.169 439.876 141.897ZM417.142 152.472C423.123 154.51 430.407 160.945 431.919 165.526C433.317 169.764 431.812 173.632 428.443 174.457C427.306 174.736 417.424 174.836 406.483 174.68L386.59 174.397L384.669 171.824C381.974 168.211 383.161 164.517 388.84 158.838C396.268 151.41 406.964 149.004 417.142 152.472ZM257.546 155.921C250.943 160.882 241.385 161.089 234.505 156.42C230.024 153.379 228.231 155.174 232.417 158.511C236.238 161.558 243.56 163.217 249.352 162.349C256.03 161.347 266.114 154.203 262.202 153.245C261.748 153.134 259.653 154.338 257.546 155.921Z" fill="#010101"/>
</svg>
