<svg width="73" height="48" viewBox="0 0 73 48" fill="none" xmlns="http://www.w3.org/2000/svg">
<path d="M28.5071 13.0119C32.0331 10.6579 32.4051 5.41789 29.2701 2.28289C25.6661 -1.32111 19.9071 1.85689 19.9071 7.45089C19.9071 12.1589 24.9251 15.4039 28.5071 13.0119Z" fill="#010101"/>
<path d="M51.9071 11.7769C54.3051 9.37888 54.4741 6.03087 52.3501 2.99987C51.3531 1.57587 49.7561 0.776883 47.9071 0.776883C42.7901 0.776883 40.2431 6.95588 43.4641 11.5539C45.4071 14.3289 49.2531 14.4309 51.9071 11.7769Z" fill="#010101"/>
<path d="M11.8841 22.8199C13.4791 19.8389 13.1111 17.8899 10.4521 15.2319C7.47513 12.2539 5.54611 12.1379 2.90711 14.7769C0.918114 16.7659 0.270128 21.2769 1.67213 23.3769C4.28013 27.2819 9.6531 26.9889 11.8841 22.8199Z" fill="#010101"/>
<path d="M70.2721 24.7039C73.4961 22.1689 73.7851 17.6549 70.9071 14.7769C68.1791 12.0489 65.4531 12.2669 62.9801 15.4119C60.2581 18.8719 60.3631 21.3239 63.3621 24.3219C66.3461 27.3069 66.9231 27.3389 70.2721 24.7039Z" fill="#010101"/>
<path d="M62.9501 38.4059C61.4381 33.8249 54.1541 27.3899 48.1731 25.3519C37.9951 21.8839 27.2991 24.2899 19.8711 31.7179C14.1921 37.3969 13.0051 41.0909 15.7001 44.7039L17.6211 47.2769L37.5141 47.5599C48.4551 47.7159 58.3371 47.6159 59.4741 47.3369C62.8431 46.5119 64.3481 42.6439 62.9501 38.4059Z" fill="#010101"/>
</svg>
